<svg version="1.2" xmlns="http://www.w3.org/2000/svg" viewBox="0 0 100 100" width="100" height="100">
	<title>howlerjs-svg</title>
	<style>
		.s0 { fill: #000000 } 
	</style>
	<g id="logo">
		<path id="logo-2" fill-rule="evenodd" class="s0" d="m57.7 0c3.7 0 7.4 0 10.2 0.8q0.5 0.2 1 0.4 0.5 0.1 1 0.3 0.5 0.3 1 0.5 0.5 0.2 1 0.5 0.3 0.2 0.6 0.4 0.3 0.3 0.6 0.5 0.3 0.2 0.6 0.4 0.3 0.3 0.6 0.5l3.6 2.7c2.3 1.6 4.4 3.4 6.6 5.1l2.4 2.2q0.5 0.4 0.9 0.9 0.5 0.4 0.9 0.8 0.4 0.5 0.8 1 0.4 0.4 0.8 0.9 0.8 0.9 1.4 1.8 0.6 0.9 1.2 1.8 0.6 1 1 2 0.5 1 0.9 2 0.1 0.4 0.2 0.7 0.1 0.4 0.1 0.8 0.1 0.4 0.2 0.7 0.1 0.4 0.1 0.8l0.1 1.3v1.2q0 0.4 0 0.7 0 0.4 0 0.7-0.1 0.4-0.1 0.8 0 0.3-0.1 0.7c-0.2 1.2-0.2 2.2-0.5 3.3q-0.3 1-0.6 1.9-0.2 1-0.6 1.9-0.3 0.9-0.7 1.9-0.3 0.9-0.7 1.8l-1.7 3.8q-0.1 0.2-0.2 0.4 0 0.1-0.1 0.3 0 0.1-0.1 0.3 0 0.2 0 0.4 0.3 0.2 0.6 0.5 0.3 0.3 0.6 0.7 0.3 0.3 0.5 0.6 0.2 0.4 0.4 0.8 0.4 0.7 0.8 1.4 0.3 0.7 0.6 1.5 0.3 0.7 0.5 1.5 0.2 0.8 0.3 1.6c0.2 0.9 0.1 1.8 0.2 2.7q0.1 0.5 0.1 0.9 0 0.4 0 0.8 0 0.4-0.1 0.8 0 0.4-0.1 0.8l-0.2 2.5q-0.1 0.6-0.2 1.2-0.1 0.7-0.3 1.3-0.1 0.6-0.3 1.3-0.1 0.6-0.3 1.2c-2 6.2-5.7 11-11.2 13.7q-0.5 0.3-1 0.5-0.5 0.2-1 0.4-0.5 0.2-1.1 0.3-0.5 0.2-1 0.3-0.3 0.1-0.6 0.2-0.3 0.1-0.6 0.1-0.3 0-0.5 0-0.3 0-0.6 0-0.6-0.1-1.1-0.2-0.5-0.1-1.1-0.3-0.5-0.1-1-0.3-0.5-0.1-1.1-0.4-0.3-0.1-0.6-0.3-0.3-0.1-0.7-0.2-0.3-0.1-0.7-0.2-0.3-0.1-0.7-0.2c-2.1 1.2-3.8 4.7-4.3 7.7l0.2 6.8q-0.1 0-0.2 0-0.1 0.1-0.2 0.1-0.1 0-0.2 0-0.1-0.1-0.2-0.1-0.1-0.1-0.3-0.2-0.1-0.1-0.2-0.2-0.2-0.1-0.3-0.3-0.1-0.1-0.1-0.3-0.2-0.2-0.4-0.4-0.1-0.2-0.3-0.5-0.2-0.2-0.4-0.4-0.2-0.2-0.4-0.4-0.5-0.5-1-1-0.6-0.5-1.2-0.9-0.6-0.4-1.3-0.7-0.6-0.4-1.3-0.7-0.4-0.1-0.8-0.2-0.4 0-0.8 0-0.4-0.1-0.8 0-0.3 0.1-0.7 0.2-0.3 0.1-0.6 0.3-0.3 0.2-0.6 0.4-0.3 0.2-0.5 0.4-0.3 0.3-0.5 0.5-0.2-0.2-0.5-0.4-0.2-0.2-0.5-0.4-0.2-0.2-0.5-0.4-0.2-0.2-0.5-0.4-1-0.8-2.2-1.3-1.2-0.6-2.4-0.8-1.3-0.3-2.6-0.3-1.3-0.1-2.5 0.2c-1.6 0.4-3 1.2-4.2 1.5q-0.3 0.1-0.7 0.1-0.4 0.1-0.8 0.2-0.4 0.1-0.7 0.2-0.4 0-0.8 0.1c-1.1 0.2-1.6 0.2-3.3 0.4q-0.5 0-1.1 0-0.5 0.1-1 0-0.5 0-1 0-0.5 0-1-0.1-0.3 0-0.5 0-0.2-0.1-0.4-0.1-0.3-0.1-0.5-0.1-0.2-0.1-0.4-0.2-0.1 0-0.1-0.1-0.1 0-0.1-0.1-0.1-0.1-0.1-0.1-0.1-0.1-0.1-0.2c0.1 0.3 1.9 0.4 2.7 0.4q0.3-0.1 0.6-0.1 0.3 0 0.6-0.1 0.4 0 0.7-0.1 0.3 0 0.6-0.1 0.5-0.1 1-0.2 0.5-0.2 1-0.3 0.4-0.2 0.9-0.5 0.4-0.2 0.8-0.5c3.2-2.3 5.1-6 6.6-9.9 0.5-1.4 0.8-2.9 1.2-4.4q0.2-0.5 0.3-1 0.2-0.6 0.3-1.1 0.1-0.6 0.2-1.1 0.1-0.6 0.2-1.1 0-0.2 0.1-0.5 0-0.2 0-0.4 0-0.3 0.1-0.5 0-0.3 0-0.5c0-0.6 0.1-0.7 0.5 0.1q0.2 0.5 0.4 1 0.2 0.5 0.4 0.9 0.1 0.5 0.2 1 0.2 0.5 0.2 1h0.1c0-0.2 0.1-0.5 0.2-0.8q0-0.3 0.1-0.6 0-0.3 0-0.6 0-0.3 0-0.6 0-0.3-0.1-0.6c-0.1-1.8-0.2-2.6-0.2-3.5-0.1-0.4-0.1-0.8-0.1-1.3-0.2-0.9-0.3-1.6-0.4-2.5-0.2-1.2-0.5-2.4 0.3-3.1q0.2-0.1 0.4-0.2 0.1-0.2 0.3-0.2 0.2-0.1 0.3-0.2 0.2-0.1 0.4-0.1c2.1-0.7 4.9 0.2 6.7 0.6q0.3 0 0.5 0.1 0.3 0 0.6 0 0.2 0.1 0.5 0 0.2 0 0.5 0 0.3 0 0.5 0 0.3-0.1 0.6-0.1 0.3-0.1 0.5-0.1 0.3-0.1 0.6-0.1 1-0.3 1.9-0.8 0.9-0.4 1.7-1 0.9-0.5 1.6-1.2 0.8-0.7 1.4-1.5c0.7-1 1.8-1.5 2.3-2.7 1-2.5-0.3-6.8-0.9-8.8q-0.7-2.1-1.8-4-1.1-1.9-2.6-3.5-1.4-1.6-3.2-2.9-1.8-1.2-3.9-2-0.5-0.2-0.9-0.4-0.5-0.1-1-0.3-0.5-0.1-1-0.2-0.5-0.1-0.9-0.2l-1.6-0.2h-1.4l-1.4 0.2q-0.5 0-1.1 0.2-0.5 0.1-1 0.3-0.5 0.2-1 0.4-0.5 0.3-1 0.6c-1.2 0.9-2.3 3.3-3.9 3.6l-0.3-1c-0.3-1-0.5-2.1-1.3-2.6q-0.4-0.2-0.8-0.3-0.4 0-0.8-0.1-0.4 0-0.9 0.1-0.4 0.1-0.8 0.2-0.8 0.3-1.6 0.6-0.8 0.4-1.5 0.9-0.7 0.4-1.3 1-0.6 0.6-1.2 1.3l-1.5 1.5c-1.4 1.9-2.7 2.8-3.2 5.7q0 0.2 0 0.3 0 0.2 0 0.4 0 0.2 0 0.3 0.1 0.2 0.1 0.4 0.1 0.4 0.2 0.9 0.1 0.5 0.2 0.9 0.1 0.5 0.2 0.9 0.1 0.5 0.2 1 0.1 0.2 0.2 0.4 0 0.2 0.1 0.5 0 0.2 0 0.4 0.1 0.3 0.1 0.5-0.1 0.1-0.1 0.2-0.1 0.1-0.2 0.3-0.1 0.1-0.1 0.2-0.1 0.1-0.2 0.2c-0.7 0.8-1.6 1.5-2.3 2.4q-0.5 0.7-1 1.6-0.4 0.8-0.8 1.7-0.4 0.9-0.7 1.8-0.3 0.9-0.5 1.8c-0.4 1.4-0.5 3-0.7 4.6-0.1 0.8-0.1 1.4-0.1 2.1 0 1.9-0.1 1.8 0 2.8 0 0.7 0.2 3-0.2 3.1q-0.2 0.1-0.4 0.1-0.2 0-0.3 0-0.2 0-0.4 0-0.2-0.1-0.4-0.1-0.5-0.1-1-0.3-0.4-0.1-0.9-0.3-0.5-0.2-0.9-0.4-0.4-0.3-0.8-0.6-0.7-0.5-1.3-1.1-0.5-0.6-1-1.4-0.4-0.7-0.7-1.5-0.3-0.7-0.5-1.6-0.3-1.4-0.4-2.9-0.2-1.5-0.1-3 0.1-1.5 0.4-3 0.2-1.5 0.7-2.9 0.2-0.4 0.3-0.8 0.2-0.4 0.4-0.8 0.2-0.4 0.4-0.8 0.2-0.4 0.4-0.8 0-0.2 0.1-0.3 0.1-0.2 0.2-0.3 0.1-0.1 0.3-0.2 0.1-0.1 0.2-0.2h0.1c0.3 0.2 0.3 1 0.3 1.6q-0.1 0.4-0.1 0.9 0 0.5 0 0.9 0 0.5 0.1 1 0 0.4 0.1 0.9c0.7 0 0.7-0.9 0.9-1.5 0.3-1 1-3.2 2.2-3.2q0 0.2 0 0.5 0 0.2-0.1 0.5 0 0.2-0.1 0.5 0 0.2-0.1 0.4-0.2 0.6-0.2 1.1-0.1 0.6-0.2 1.1 0 0.6 0 1.1-0.1 0.6 0 1.1c0 0.6-0.1 2.1 0.2 2.3 0.9-0.5 1.1-2.9 1.5-3.9q0.1-0.6 0.3-1.1 0.2-0.6 0.4-1.2 0.3-0.5 0.5-1.1 0.3-0.5 0.6-1.1c0.7-1.1 1.5-2.1 2.2-3.2 0.3-0.5 1.4-2.3 0.8-3.1q-0.1-0.1-0.3-0.2-0.1 0-0.3 0-0.2 0-0.4 0-0.2 0.1-0.3 0.2-0.2 0-0.4 0.1-0.1 0-0.3 0.1-0.1 0.1-0.3 0.2-0.2 0.1-0.3 0.2-0.1 0-0.2 0.1 0 0.1-0.1 0.1-0.1 0.1-0.2 0.2-0.1 0-0.2 0.1-0.1 0-0.2 0-0.1 0-0.1-0.1-0.1 0-0.2-0.1-0.1 0-0.1-0.1c0-0.6 0.8-1 0.6-1.7q-0.1-0.1-0.2-0.1-0.2-0.1-0.3-0.1-0.2 0-0.3 0.1-0.2 0.1-0.3 0.2c-0.6 0.4-1.1 0.9-1.7 1.4q0 0.1-0.1 0.1-0.1 0.1-0.2 0.2-0.1 0-0.2 0.1-0.1 0-0.2 0l0.7-1.2q0.3-0.4 0.7-0.9 0.3-0.4 0.7-0.8 0.5-0.3 0.9-0.7 0.5-0.3 1-0.5c1.7-0.8 3.6-0.3 4.6-1.9 0.7-1.3 0.6-3.4 0.9-5.1 0.5-2.6 0.7-5.3 1.2-7.8l0.5-2.2q0.2-0.8 0.5-1.5 0.2-0.8 0.6-1.6 0.3-0.7 0.7-1.5 0.3-0.7 0.8-1.5c0.5-0.8 0.9-1.7 1.5-2.5 0.8-1.2 1.8-2.3 2.7-3.5q0.5-0.6 1-1.1 0.4-0.6 0.9-1.1 0.6-0.5 1.1-1 0.5-0.5 1.1-1 0.6-0.6 1.3-1.2 0.7-0.6 1.4-1.1 0.7-0.6 1.4-1.2 0.7-0.5 1.4-1 0.9-0.6 1.9-1.1 0.9-0.4 1.9-0.8 1-0.4 2-0.7 1-0.4 2-0.6c1.2-0.3 2.5-0.4 3.8-0.6l4-0.4h1.2zm-15.1 23.1q0-0.2-0.1-0.5-0.1-0.2-0.3-0.4-0.1-0.2-0.4-0.3-0.2-0.2-0.4-0.2-0.1 0-0.2 0-0.1 0-0.2 0-0.1 0-0.2 0.1-0.1 0-0.2 0c0.3-1.2 2.3-1.8 4-1.5 2.9 0.6 4.6 2.3 7.9 2.4q-0.1-0.9-0.4-1.8-0.3-0.9-0.8-1.7-0.4-0.7-1-1.4-0.6-0.7-1.3-1.3-0.2-0.2-0.5-0.4-0.3-0.1-0.7-0.2-0.3-0.1-0.7-0.2-0.3 0-0.6 0.1 0-0.2 0-0.3 0.1-0.1 0.2-0.2 0.1-0.2 0.2-0.2 0.1-0.1 0.2-0.2 0.1-0.1 0.1-0.2 0.1 0 0.2-0.1 0.1-0.1 0.2-0.1 0.1-0.1 0.2-0.2c1.4-0.6 3.7-0.2 5.1 0.2q1 0.3 1.9 0.6 0.9 0.4 1.7 0.8 0.9 0.5 1.8 1 0.8 0.5 1.6 1.1c0.8 0.5 1.5 1.3 2.3 1.9q0.3 0.3 0.7 0.6 0.4 0.3 0.7 0.6 0.4 0.2 0.8 0.5 0.4 0.2 0.8 0.5 0.1 0.1 0.3 0.2 0.1 0.1 0.3 0.1 0.2 0.1 0.4 0.1 0.1 0 0.3 0c1.1-0.2 0.7-1.9 0.5-2.7-0.2-0.4-0.5-0.8-0.1-0.9q0.3 0 0.6 0 0.2 0 0.5 0 0.3 0.1 0.5 0.2 0.3 0 0.5 0.2 0.5 0.3 1 0.6 0.5 0.4 1 0.8 0.4 0.4 0.8 0.9 0.4 0.5 0.7 1c3.7 5.3 4.2 14.3 4.7 22.8l1.2 0.4q0.3 0 0.6 0.1 0.2 0.1 0.5 0.2 0.3 0.1 0.5 0.2 0.3 0.1 0.6 0.2l0.5-1.5q0.4-1.5 0.8-3.1c0.5-2.1 0.5-4.3 0.9-6.5l0.1-2.3 0.1-1.9v-1.5l-0.1-1.7v-2.5-1.9c-0.2-1.2-0.1-2.4-0.4-3.5q-0.2-1.1-0.6-2.2-0.4-1.1-0.9-2.1-0.5-1-1.1-2-0.6-1-1.3-1.8-0.3-0.4-0.6-0.7-0.2-0.3-0.5-0.5-0.3-0.3-0.6-0.6-0.3-0.3-0.6-0.5c-1.9-1.5-3.7-3.3-6.1-4.3-2.7-1-7-0.9-10.1-0.2-1 0.2-2.1 0.3-3 0.6-4.5 1.3-7.6 3.7-10.8 6.2-3.3 2.5-7 6-8.7 9.9-0.4 0.9-0.6 1.7-0.9 2.6q0.1 0 0.3-0.1 0.2 0 0.3 0 0.2 0 0.4-0.1 0.1 0 0.3-0.1l2.8-0.7q0.2-0.1 0.4-0.1 0.2-0.1 0.5-0.1 0.2-0.1 0.4-0.1 0.3-0.1 0.5-0.1zm-13.5 16.8h0.1l-0.4 0.7-0.7 1.5q-0.3 0.6-0.4 1.2-0.2 0.6-0.4 1.2-0.2 0.6-0.3 1.2-0.2 0.6-0.3 1.2l-0.4 2.1h-0.1q-0.1-0.1-0.2-0.1-0.1 0-0.2 0-0.2 0-0.3 0-0.1 0-0.2 0.1v-0.1q-0.2-0.4-0.3-0.8-0.1-0.4-0.2-0.9 0-0.4 0-0.9 0.1-0.4 0.1-0.9c0.5-2.2 1.4-4 3.1-5 0.3-0.2 0.7-0.3 1.1-0.5zm19.1 0.6q0.1 0 0.2 0 0.2 0 0.3 0.1 0.2 0 0.3 0 0.1 0 0.3 0.1l-0.4 1-0.9 2.3q-1 2.1-1.9 4.2-0.1 0.3-0.2 0.6-0.2 0.3-0.3 0.6-0.2 0.3-0.4 0.6-0.2 0.2-0.4 0.5c-0.9-0.1-1.3-1.1-2.1-1.4q0.1-0.4 0.1-0.7 0.1-0.4 0.2-0.8 0.1-0.4 0.2-0.8 0.1-0.3 0.3-0.7c0.6-2.1 1.2-4 3-5q0.1-0.1 0.2-0.2 0.2-0.1 0.3-0.1 0.1-0.1 0.3-0.1 0.1-0.1 0.3-0.1zm-17.4 8.6c-1 0-2 0-3 0q0.2-0.4 0.4-0.7 0.3-0.4 0.6-0.6 0.4-0.3 0.8-0.4 0.4-0.1 0.8-0.2 0.1 0.2 0.2 0.5 0.1 0.2 0.2 0.4 0 0.3 0.1 0.5 0 0.3-0.1 0.5zm5.7-0.6q0.3 0 0.6 0 0.3 0 0.6 0 0.3 0.1 0.6 0.1 0.3 0.1 0.6 0.1l0.2 1.1q0.1 0.1 0.1 0.2 0 0.1 0 0.3 0.1 0.1 0.1 0.2 0 0.2-0.1 0.3c-1 1.1-3.3-0.4-4.1-0.7l-1.1-0.3 0.1-0.1q0.1-0.2 0.3-0.4 0.2-0.2 0.4-0.4 0.2-0.1 0.5-0.2 0.2-0.1 0.5-0.1zm39.8 2.4c0-1.1-1-1.3-2-1.5h-0.7l-0.8 0.7q-0.8 0.9-1.6 1.9-0.7 1-1.3 2.1-0.6 1.1-1.1 2.2-0.4 1.2-0.7 2.4c-0.3 0.9-0.9 2.5-0.2 3.4q0 0.1 0.1 0.2 0 0 0.1 0.1 0 0 0.1 0 0.1 0.1 0.1 0.1 0.1-0.2 0.3-0.4 0.1-0.1 0.3-0.2 0.2-0.2 0.4-0.2 0.2-0.1 0.5-0.1c0.8 0.7 0.6 3 0.8 4.3l0.3 1.1 0.1-0.1q0.1-0.1 0.1-0.3 0.1-0.2 0.2-0.4 0.1-0.2 0.1-0.4 0.1-0.2 0.1-0.4c0.6-1.5 0.9-3.2 1.4-4.8q0.3-0.8 0.7-1.5 0.3-0.8 0.7-1.5 0.4-0.7 0.9-1.4 0.4-0.7 0.9-1.3 0.2-0.3 0.4-0.6 0.2-0.3 0.3-0.6 0.2-0.4 0.3-0.7 0.2-0.3 0.3-0.7 0.1-0.1 0.1-0.2 0.1-0.2 0.1-0.3 0-0.1 0-0.3 0-0.1 0-0.2-0.1-0.2-0.2-0.2-0.2-0.1-0.4-0.2-0.2 0-0.3 0-0.2 0-0.4 0zm-50.3 1.8q1 0 1.9 0.2 1 0.3 1.9 0.7 0.9 0.4 1.7 1.1 0.7 0.6 1.3 1.4c0.4 0.4 0.8 0.8 1.2 1.3q0.4 0.5 0.8 1.1 0.4 0.7 0.7 1.3 0.3 0.6 0.6 1.3 0.3 0.6 0.5 1.3c1.4 4.6 0.5 11-0.8 15-0.3 1-0.8 2-1.2 3-0.8 1.9-1.3 3.5-3.6 4q-0.2 0-0.4 0-0.2 0-0.5 0-0.2 0-0.4 0-0.2 0-0.4 0l-1.2-0.3q-0.4-0.2-0.8-0.3-0.4-0.2-0.7-0.4-0.4-0.2-0.8-0.5-0.3-0.2-0.7-0.5-0.1-0.1-0.3-0.2-0.1-0.1-0.3-0.2-0.2-0.1-0.4-0.1-0.2-0.1-0.4-0.1c-0.5 0.1-0.7 1-0.9 1.5l-0.4 1.1c-0.5 2.2 3 2.9 4.3 3.6q-0.1 0.1-0.3 0.2-0.2 0.1-0.3 0.2-0.2 0.1-0.4 0.2-0.1 0.1-0.3 0.2-0.3 0-0.6 0-0.3 0-0.5 0-0.3 0-0.6-0.1-0.3-0.1-0.5-0.2c-1.7-0.7-2.6-2.3-3.5-3.8q-0.3-0.5-0.6-1-0.3-0.5-0.5-1.1-0.3-0.5-0.5-1-0.3-0.6-0.5-1.1c-1.2-3-1.3-7-1.3-11.2q0-0.6-0.1-1.3 0-0.6 0-1.2 0-0.7 0.1-1.3 0-0.7 0.1-1.3 0-0.4 0.1-0.8 0-0.3 0.1-0.7 0.1-0.4 0.2-0.8 0-0.4 0.1-0.7 0.4-1.2 1-2.3 0.5-1.1 1.3-2.1 0.7-0.9 1.7-1.7 0.9-0.8 1.9-1.5 0.3-0.1 0.5-0.2 0.3-0.1 0.5-0.2 0.3-0.1 0.5-0.2 0.3-0.1 0.5-0.1zm54.8 0.4l-0.5 0.1q-0.2 0-0.3 0.1-0.2 0.1-0.3 0.2-0.2 0-0.3 0.1-0.1 0.1-0.3 0.2-0.2 0.2-0.4 0.5-0.2 0.2-0.4 0.4-0.2 0.3-0.4 0.6-0.1 0.2-0.3 0.5-0.4 0.8-0.8 1.7-0.4 0.9-0.7 1.8-0.3 0.9-0.6 1.8-0.3 0.9-0.5 1.9c-0.2 1-0.2 2.1-0.4 3.2q-0.1 0.2-0.1 0.4 0 0.2 0 0.4 0 0.2 0.1 0.3 0.1 0.2 0.2 0.3 0.2 0.1 0.4 0 0.1 0 0.3-0.1 0.1 0 0.2-0.2 0.1-0.1 0.2-0.2 0.1-0.2 0.1-0.3 0.1-0.2 0.1-0.3 0.1-0.2 0.1-0.4 0-0.1 0.1-0.3l0.7-2.7q0.2-0.8 0.6-1.6 0.3-0.7 0.7-1.5 0.5-0.7 0.9-1.4 0.5-0.7 1.1-1.3 0.3-0.3 0.5-0.5 0.3-0.3 0.5-0.6 0.3-0.2 0.5-0.5 0.3-0.3 0.5-0.5c0.6-1.1-0.4-2.2-1.5-2.1z"/>
	</g>
</svg>